<?xml version="1.0" standalone="no"?>
<!DOCTYPE svg PUBLIC "-//W3C//DTD SVG 20010904//EN"
 "http://www.w3.org/TR/2001/REC-SVG-20010904/DTD/svg10.dtd">
<svg version="1.0" xmlns="http://www.w3.org/2000/svg"
 width="128.000000pt" height="128.000000pt" viewBox="0 0 128.000000 128.000000"
 preserveAspectRatio="xMidYMid meet">

<g transform="translate(0.000000,128.000000) scale(0.100000,-0.100000)"
fill="#000000" stroke="none">
<path d="M29 1251 l-29 -29 0 -147 c0 -231 -4 -228 317 -223 l213 3 27 28 c27
27 28 30 31 160 2 79 -1 147 -8 169 -19 64 -37 68 -295 68 l-227 0 -29 -29z"/>
<path d="M738 1264 c-45 -24 -50 -61 -46 -381 l3 -293 28 -27 27 -28 213 -3
c135 -2 226 1 249 8 66 19 68 29 68 375 l0 307 -29 29 -29 29 -229 0 c-181 -1
-234 -4 -255 -16z"/>
<path d="M55 736 c-53 -23 -55 -39 -55 -372 l0 -306 29 -29 29 -29 227 0 c258
0 277 4 295 68 8 24 10 137 8 329 l-3 293 -28 27 -27 28 -223 2 c-169 2 -229
0 -252 -11z"/>
<path d="M755 421 c-11 -5 -29 -19 -40 -31 -17 -19 -20 -39 -23 -153 -2 -79 1
-147 8 -169 19 -64 37 -68 295 -68 l227 0 29 29 29 29 0 147 c0 165 -9 196
-61 214 -37 13 -433 14 -464 2z"/>
</g>
</svg>
