<?xml version="1.0" standalone="no"?>
<!DOCTYPE svg PUBLIC "-//W3C//DTD SVG 20010904//EN"
 "http://www.w3.org/TR/2001/REC-SVG-20010904/DTD/svg10.dtd">
<svg version="1.0" xmlns="http://www.w3.org/2000/svg"
 width="128.000000pt" height="128.000000pt" viewBox="0 0 128.000000 128.000000"
 preserveAspectRatio="xMidYMid meet">

<g transform="translate(0.000000,128.000000) scale(0.100000,-0.100000)"
fill="#000000" stroke="none">
<path d="M589 1132 c-57 -38 -589 -487 -589 -497 0 -16 60 -85 73 -85 7 0 136
104 287 230 151 126 277 230 280 230 3 0 129 -104 280 -230 151 -126 280 -230
287 -230 13 0 73 69 73 85 0 6 -40 44 -90 85 l-90 74 0 166 c0 116 -4 170 -12
178 -7 7 -44 12 -95 12 -99 0 -103 -4 -103 -110 l0 -71 -87 73 c-141 118 -160
127 -214 90z"/>
<path d="M408 752 l-228 -187 0 -195 c0 -161 3 -200 16 -218 15 -21 21 -22
180 -22 l164 0 0 155 0 155 100 0 100 0 0 -155 0 -155 164 0 c159 0 165 1 180
22 13 19 16 57 16 218 l0 195 -225 185 c-124 102 -229 186 -233 187 -4 2 -109
-82 -234 -185z"/>
</g>
</svg>
