<?xml version="1.0" standalone="no"?>
<!DOCTYPE svg PUBLIC "-//W3C//DTD SVG 20010904//EN"
 "http://www.w3.org/TR/2001/REC-SVG-20010904/DTD/svg10.dtd">
<svg version="1.0" xmlns="http://www.w3.org/2000/svg"
 width="128.000000pt" height="128.000000pt" viewBox="0 0 128.000000 128.000000"
 preserveAspectRatio="xMidYMid meet">

<g transform="translate(0.000000,128.000000) scale(0.100000,-0.100000)"
fill="#000000" stroke="none">
<path d="M208 1262 c-58 -36 -58 -30 -58 -622 0 -594 -1 -588 59 -623 26 -15
70 -17 431 -17 444 0 443 0 474 64 14 30 16 85 16 434 l0 400 -148 3 c-220 6
-232 19 -232 244 l0 135 -257 0 c-225 0 -261 -3 -285 -18z m687 -547 l0 -30
-255 0 c-238 0 -255 1 -258 18 -9 47 -9 48 260 45 l253 -3 0 -30z m0 -150 l0
-30 -255 0 c-238 0 -255 1 -258 18 -9 47 -9 48 260 45 l253 -3 0 -30z m0 -150
l0 -30 -255 0 c-238 0 -255 1 -258 18 -9 47 -9 48 260 45 l253 -3 0 -30z
m-150 -150 l0 -30 -180 0 c-165 0 -180 1 -183 18 -9 46 -3 48 185 45 l178 -3
0 -30z"/>
<path d="M830 1129 c0 -96 3 -129 14 -138 9 -8 54 -11 135 -9 l121 3 -135 135
-135 135 0 -126z"/>
</g>
</svg>
